<?xml version="1.0" encoding="UTF-8"?>
<svg width="795px" height="200px" viewBox="0 0 795 200" version="1.1" xmlns="http://www.w3.org/2000/svg" xmlns:xlink="http://www.w3.org/1999/xlink">
    <!-- Generator: Sketch 52.6 (67491) - http://www.bohemiancoding.com/sketch -->
    <title>Group 6</title>
    <desc>Created with Sketch.</desc>
    <g id="Page-1" stroke="none" stroke-width="1" fill="none" fill-rule="evenodd">
        <g id="a-copy-3" transform="translate(-4708.000000, -1768.000000)">
            <g id="Group-6" transform="translate(4708.000000, 1768.000000)">
                <path d="M263.536,154.876 L292.264,154.876 L292.264,159.682 L268.936,159.682 L268.936,172.75 L290.104,172.75 L290.104,177.61 L268.936,177.61 L268.936,195.106 L263.536,195.106 L263.536,154.876 Z M311.78,195.106 L327.872,154.876 L333.758,154.876 L349.58,195.106 L343.91,195.106 L339.752,184.414 L321.608,184.414 L317.396,195.106 L311.78,195.106 Z M330.788,161.248 L323.552,179.554 L337.916,179.554 L330.842,161.248 L330.788,161.248 Z M371.094001,154.876 L376.764001,154.876 L398.796001,186.466 L398.850001,186.466 L398.850001,154.876 L404.250001,154.876 L404.250001,195.106 L398.580001,195.106 L376.602001,163.516 L376.548001,163.462 L376.548001,195.106 L371.094001,195.106 L371.094001,154.876 Z M425.764001,154.876 L456.598001,154.876 L456.598001,159.682 L443.854001,159.682 L443.854001,195.106 L438.454001,195.106 L438.454001,159.682 L425.764001,159.682 L425.764001,154.876 Z M473.900002,195.106 L489.992002,154.876 L495.878002,154.876 L511.700002,195.106 L506.030002,195.106 L501.872002,184.414 L483.728002,184.414 L479.516002,195.106 L473.900002,195.106 Z M492.908002,161.248 L485.672002,179.554 L500.036002,179.554 L492.962002,161.248 L492.908002,161.248 Z M533.214002,154.876 L538.668002,154.876 L538.668002,195.106 L533.214002,195.106 L533.214002,154.876 Z M598.922003,154.875789 L613.610003,154.876 C627.056003,154.822 631.862003,165.136 631.862003,174.964 C631.862003,186.25 626.246003,195.106 612.962003,195.106 L598.922003,195.106 L598.922003,154.875789 Z M604.322003,159.682 L604.322003,190.246 L612.854003,190.246 C620.846003,190.246 626.408003,185.062 626.408003,174.91 C626.408003,167.512 622.844003,159.682 612.800003,159.682 L604.322003,159.682 Z M651.324003,195.106 L667.416003,154.876 L673.302003,154.876 L689.124003,195.106 L683.454003,195.106 L679.296003,184.414 L661.152003,184.414 L656.940003,195.106 L651.324003,195.106 Z M670.332003,161.248 L663.096003,179.554 L677.460003,179.554 L670.386003,161.248 L670.332003,161.248 Z M706.480003,154.876 L737.314003,154.876 L737.314003,159.682 L724.570003,159.682 L724.570003,195.106 L719.170003,195.106 L719.170003,159.682 L706.480003,159.682 L706.480003,154.876 Z M754.616004,195.106 L770.708004,154.876 L776.594004,154.876 L792.416004,195.106 L786.746004,195.106 L782.588004,184.414 L764.444004,184.414 L760.232004,195.106 L754.616004,195.106 Z M773.624004,161.248 L766.388004,179.554 L780.752004,179.554 L773.678004,161.248 L773.624004,161.248 Z" id="FANTAI-DATA-Copy-4" fill="#000000"></path>
                <path d="M323.601562,47.0625 L332.742188,42.4921875 C336.804708,48.9245113 340.528629,56.0338152 343.914062,63.8203125 L343.914062,23.703125 L323.601562,23.703125 L323.601562,47.0625 Z M302.78125,15.578125 L302.78125,29.2890625 L277.898438,29.2890625 C277.559894,30.3046926 276.882818,31.8281148 275.867188,33.859375 C275.190101,35.8906352 274.513024,37.4140574 273.835938,38.4296875 L300.242188,38.4296875 L300.242188,51.6328125 L287.039062,51.6328125 L287.039062,61.7890625 L302.78125,61.7890625 L302.78125,75.5 L287.039062,75.5 L287.039062,89.71875 C288.731779,88.7031199 292.62497,85.8255445 298.71875,81.0859375 C298.71875,84.4713711 299.057288,88.8723688 299.734375,94.2890625 C300.072918,95.9817793 300.242188,97.1666633 300.242188,97.84375 L295.671875,100.890625 C285.177031,108.338579 278.744804,113.416653 276.375,116.125 L266.726562,105.460938 C269.773453,102.414047 271.296875,98.8593953 271.296875,94.796875 L271.296875,75.5 L257.585938,75.5 L257.585938,61.7890625 L271.296875,61.7890625 L271.296875,51.6328125 L265.710938,51.6328125 C265.372394,52.3098992 264.864587,52.9869758 264.1875,53.6640625 C263.848957,54.3411492 263.002611,55.5260332 261.648438,57.21875 C261.309894,55.1874898 260.294279,51.6328379 258.601562,46.5546875 C257.924476,43.1692539 257.247399,40.4609477 256.570312,38.4296875 C263.002636,27.5963 267.911441,15.578191 271.296875,2.375 L287.039062,4.9140625 C286.700519,6.6067793 285.854173,9.14581641 284.5,12.53125 C284.161457,13.8854234 283.822918,14.9010383 283.484375,15.578125 L302.78125,15.578125 Z M365.75,78.546875 C370.489607,80.5781352 374.382797,82.1015574 377.429688,83.1171875 C377.429688,91.9193148 376.583342,99.8749645 374.890625,106.984375 C373.874995,114.432329 369.304728,118.15625 361.179688,118.15625 L356.101562,118.15625 C347.976522,118.15625 343.914062,113.078176 343.914062,102.921875 L343.914062,69.40625 L332.742188,74.9921875 C330.372384,68.2213203 327.325539,60.9427473 323.601562,53.15625 L323.601562,63.8203125 C323.601562,89.2110645 317.677143,108.507746 305.828125,121.710938 C303.119778,119.002591 299.057319,115.27867 293.640625,110.539062 C294.317712,110.877606 293.979173,110.539068 292.625,109.523438 C302.781301,99.7056801 307.859375,83.7943809 307.859375,61.7890625 L307.859375,8.46875 L359.65625,8.46875 L359.65625,101.398438 C359.65625,103.429698 360.333327,104.445312 361.6875,104.445312 C363.041673,104.445312 363.888019,103.091159 364.226562,100.382812 C365.242193,94.289032 365.75,87.010459 365.75,78.546875 Z M442.449062,17.609375 L442.449062,30.8125 L416.042812,30.8125 C414.688639,33.8593902 413.165217,36.9062348 411.4725,39.953125 L438.894375,39.953125 L438.894375,53.6640625 L426.706875,53.6640625 L426.706875,65.8515625 L443.464687,65.8515625 L443.464687,79.5625 L426.706875,79.5625 L426.706875,93.78125 L438.894375,84.640625 C439.571462,89.380232 440.587076,94.7968445 441.94125,100.890625 C432.462036,106.984405 423.82931,113.585902 416.042812,120.695312 L406.394375,109.523438 C409.441265,107.153634 410.964687,103.768251 410.964687,99.3671875 L410.964687,79.5625 L396.238125,79.5625 L396.238125,65.8515625 L410.964687,65.8515625 L410.964687,53.6640625 L403.3475,53.6640625 C402.33187,54.6796926 401.485524,55.8645766 400.808437,57.21875 C399.454264,50.1093395 397.761573,43.8463812 395.730312,38.4296875 C401.824093,28.6119301 406.563629,16.5938211 409.949062,2.375 L425.183437,4.9140625 C424.167807,9.31512617 422.813654,13.5468547 421.120937,17.609375 L442.449062,17.609375 Z M444.988125,44.5234375 L444.988125,29.796875 L467.839687,29.796875 C467.839687,26.7499848 468.008956,22.179718 468.3475,16.0859375 L468.3475,3.390625 L484.089687,3.390625 C484.089687,13.5469258 483.920418,22.3489211 483.581875,29.796875 L514.050625,29.796875 L514.050625,44.5234375 L486.62875,44.5234375 C492.383987,71.9454496 502.370866,92.4270156 516.589687,105.96875 C513.204254,110.369814 509.649602,115.278619 505.925625,120.695312 C493.399521,107.830665 484.258987,88.1954445 478.50375,61.7890625 C476.47249,71.2682766 473.764183,80.239541 470.37875,88.703125 C476.133987,95.8125355 481.38133,102.414032 486.120937,108.507812 L472.917812,118.15625 C471.563639,115.447903 469.532409,111.893251 466.824062,107.492188 C465.469889,105.122384 464.454274,103.260423 463.777187,101.90625 C458.699037,108.677117 453.451694,115.109345 448.035,121.203125 C447.357913,120.526038 446.173029,119.171885 444.480312,117.140625 L435.339687,108 C453.282485,92.4270055 463.777172,71.2683629 466.824062,44.5234375 L444.988125,44.5234375 Z M547.077812,31.3203125 L562.312187,31.3203125 C562.989274,28.950509 563.327812,26.2422027 563.327812,23.1953125 L554.695,23.1953125 C552.325196,26.2422027 549.786159,28.950509 547.077812,31.3203125 Z M558.249687,63.8203125 L586.179375,63.8203125 C583.809571,61.450509 580.254919,58.2343953 575.515312,54.171875 C573.822595,52.8177016 572.637711,51.8020867 571.960625,51.125 C568.913734,55.5260637 564.343468,59.7577922 558.249687,63.8203125 Z M616.140312,44.015625 L634.421562,44.015625 L634.421562,24.2109375 L616.140312,24.2109375 L616.140312,44.015625 Z M565.359062,96.3203125 L565.359062,104.445312 L625.280937,104.445312 L625.280937,96.3203125 L565.359062,96.3203125 Z M625.280937,84.640625 L625.280937,76.515625 L565.359062,76.515625 L565.359062,84.640625 L625.280937,84.640625 Z M601.41375,56.7109375 L601.41375,11.515625 L649.655937,11.515625 L649.655937,56.7109375 L601.41375,56.7109375 Z M565.359062,121.203125 L549.109062,121.203125 L549.109062,68.390625 C547.416345,68.7291684 546.062192,69.4062449 545.046562,70.421875 C541.999672,66.0208113 538.952827,62.1276211 535.905937,58.7421875 C548.093498,54.0025805 555.710609,48.9245062 558.7575,43.5078125 L536.921562,43.5078125 L536.921562,31.3203125 L544.53875,31.3203125 C544.200206,30.6432258 543.52313,29.6276109 542.5075,28.2734375 C541.49187,26.5807207 539.799178,24.3802219 537.429375,21.671875 C541.830438,17.2708113 546.231436,11.0078531 550.6325,2.8828125 L566.374687,2.8828125 L564.343437,6.9453125 C563.327807,8.6380293 562.481461,9.99218242 561.804375,11.0078125 L595.827812,11.0078125 L595.827812,23.1953125 L578.562187,23.1953125 C578.562187,25.9036594 578.392918,28.6119656 578.054375,31.3203125 L599.3825,31.3203125 L599.3825,43.5078125 L580.593437,43.5078125 L597.859062,54.6796875 L590.241875,63.8203125 L641.530937,63.8203125 L641.530937,121.203125 L625.280937,121.203125 L625.280937,116.125 L565.359062,116.125 L565.359062,121.203125 Z M695.88625,80.0703125 L695.88625,87.1796875 L717.722187,87.1796875 L717.722187,80.0703125 L695.88625,80.0703125 Z M717.722187,68.390625 L717.722187,61.28125 L695.88625,61.28125 L695.88625,68.390625 L717.722187,68.390625 Z M712.13625,19.640625 L723.815937,13.546875 C729.571174,20.9948289 735.495594,29.6275551 741.589375,39.4453125 C739.558114,40.7994859 736.680539,42.3229082 732.956562,44.015625 C731.263845,45.3697984 729.909692,46.2161441 728.894062,46.5546875 C727.539889,44.8619707 726.355005,43.0000102 725.339375,40.96875 C716.198704,41.3072934 704.180595,42.1536391 689.284687,43.5078125 C684.54508,43.8463559 680.990428,44.1848941 678.620625,44.5234375 L674.558125,30.8125 C679.636275,27.7656098 687.591925,18.2865379 698.425312,2.375 L713.659687,8.46875 C711.289884,11.1770969 707.904501,15.2395563 703.503437,20.65625 L695.88625,29.796875 C698.256053,29.4583316 701.979974,29.2890625 707.058125,29.2890625 C711.459188,28.9505191 715.01384,28.78125 717.722187,28.78125 C716.02947,25.7343598 714.16751,22.6875152 712.13625,19.640625 Z M779.1675,30.3046875 C785.26128,33.3515777 790.339354,35.3828074 794.401875,36.3984375 C793.724788,39.4453277 792.709173,42.9999797 791.355,47.0625 C790.677913,48.7552168 790.339375,49.9401008 790.339375,50.6171875 C787.969571,56.710968 782.21442,59.7578125 773.07375,59.7578125 L760.88625,59.7578125 C748.360145,59.7578125 742.097187,53.8333926 742.097187,41.984375 L742.097187,3.8984375 L757.331562,3.8984375 L757.331562,22.1796875 C763.086799,19.4713406 770.365372,15.7474195 779.1675,11.0078125 L782.214375,9.484375 L792.878437,21.671875 C787.461743,24.3802219 776.459249,28.7812195 759.870625,34.875 C773.073816,30.135393 772.22747,30.4739313 757.331562,35.890625 L757.331562,39.953125 C757.331562,44.3541887 760.039868,46.5546875 765.456562,46.5546875 L769.519062,46.5546875 C774.258669,46.5546875 776.797706,45.0312652 777.13625,41.984375 C778.15188,38.9374848 778.828956,35.0442945 779.1675,30.3046875 Z M779.675312,87.6875 C784.414919,89.7187602 789.492993,91.7499898 794.909687,93.78125 C793.21697,101.567747 791.862817,106.815091 790.847187,109.523438 C788.13884,115.617218 782.21442,118.833332 773.07375,119.171875 L760.378437,119.171875 C748.190876,119.171875 742.097187,113.247455 742.097187,101.398438 L742.097187,63.3125 L757.331562,63.3125 L757.331562,78.546875 C766.133689,74.1458113 774.427877,69.4062754 782.214375,64.328125 L792.878437,77.0234375 C786.10757,80.4088711 775.274345,85.3176762 760.378437,91.75 C770.873281,87.3489363 769.857666,87.8567438 757.331562,93.2734375 L757.331562,99.3671875 C757.331562,104.106795 759.532061,106.476562 763.933125,106.476562 L769.519062,106.476562 C774.258669,106.476562 776.966975,104.95314 777.644062,101.90625 C777.644062,101.229163 777.813331,99.705741 778.151875,97.3359375 C778.828961,93.2734172 779.336769,90.0573035 779.675312,87.6875 Z M695.88625,98.859375 L695.88625,120.695312 L681.159687,120.695312 L681.159687,48.5859375 L732.44875,48.5859375 L732.44875,105.460938 C732.44875,114.940152 728.38629,119.679688 720.26125,119.679688 C716.198729,120.018231 711.120655,120.1875 705.026875,120.1875 C704.011244,115.447893 702.657091,111.046895 700.964375,106.984375 L712.13625,106.984375 C715.860226,106.984375 717.722187,105.122414 717.722187,101.398438 L717.722187,98.859375 L695.88625,98.859375 Z" id="钒钛智能-copy-4" fill="#000000"></path>
                <rect id="Rectangle-59-Copy-22" stroke="#0152DA" stroke-width="20" x="10" y="10" width="180" height="180"></rect>
                <polygon id="Rectangle-60-Copy-30" fill="#0152DA" points="50 50 150 50 130.003325 70 50 70"></polygon>
                <rect id="Rectangle-60-Copy-31" fill="#0152DA" x="50" y="90" width="70" height="20"></rect>
                <rect id="Rectangle-60-Copy-32" fill="#0152DA" x="50" y="130" width="35" height="20"></rect>
            </g>
        </g>
    </g>
</svg>